<svg width="100" height="14" viewBox="0 0 100 14" fill="none" xmlns="http://www.w3.org/2000/svg">
    <path
        d="M22.4237 8.76168L13.8874 0.627872V12.7599H15.6576V4.73171L24.1946 12.7333V0.627872H22.4244V8.76168H22.4237ZM6.51386 0.51123C3.45905 0.51123 0.943591 2.85573 0.601074 5.8748H2.38553C2.71445 3.85366 4.43739 2.31269 6.51386 2.31269C8.59033 2.31269 10.3133 3.85366 10.6422 5.8748H12.4266C12.0841 2.85573 9.56867 0.51123 6.51386 0.51123ZM6.51386 10.8424C4.43739 10.8424 2.71445 9.30082 2.38553 7.28033H0.601074C0.942943 10.2994 3.45905 12.6439 6.51386 12.6439C9.56867 12.6439 12.0841 10.2994 12.4266 7.28033H10.6422C10.3133 9.30082 8.59097 10.8424 6.51386 10.8424ZM25.6553 2.40212H35.9625V0.633056H25.6553V2.40212ZM25.6553 12.7599H35.9625V10.9908H27.4255V7.581H35.9619V5.81194H25.6553V12.7599ZM55.2153 0.627872C51.8627 0.627872 49.1446 3.34368 49.1446 6.69388C49.1446 10.0441 51.8627 12.7599 55.2153 12.7599C58.568 12.7599 61.2861 10.0441 61.2861 6.69388C61.2861 3.34368 58.568 0.627872 55.2153 0.627872ZM55.1629 11.4801C52.5173 11.4801 50.3728 9.33711 50.3728 6.69388C50.3728 4.05065 52.5173 1.90769 55.1629 1.90769C57.8085 1.90769 59.9529 4.05065 59.9529 6.69388C59.9529 9.33711 57.8085 11.4801 55.1629 11.4801ZM38.0668 1.82021H42.2644V12.7599L43.5238 12.7515V1.82021H47.7382V0.627872H38.0668V1.82021ZM73.01 6.62908C73.01 7.98082 72.5374 9.13687 71.6412 10.0894C70.7529 11.0336 69.6859 11.506 68.4472 11.506C67.2002 11.506 66.1331 11.0336 65.2532 10.081C64.3649 9.12002 63.8922 7.96398 63.8922 6.60381V0.627872H62.6866V6.60445C62.6866 8.30612 63.2648 9.7473 64.3895 10.9442C65.5057 12.1572 66.8667 12.7599 68.4556 12.7599C70.0368 12.7599 71.3894 12.1572 72.5056 10.9526C73.6303 9.75572 74.2169 8.31455 74.2169 6.62065V0.627872H73.0113V6.62908H73.01ZM98.1471 0.627872V6.10095H89.9513V0.627872H88.6997V12.7599H89.9513V7.28616H98.1471V12.7599H99.3994V0.627872H98.1471ZM81.6843 11.5034C79.0387 11.5034 76.8942 9.36044 76.8942 6.71721C76.8942 4.07398 79.0387 1.93102 81.6843 1.93102C83.4733 1.93102 85.0324 2.9121 85.8547 4.36429H87.2805C86.361 2.18244 84.2017 0.6512 81.6837 0.6512C78.331 0.6512 75.6129 3.367 75.6129 6.71721C75.6129 10.0674 78.331 12.7832 81.6837 12.7832C84.2185 12.7832 86.3902 11.2299 87.2986 9.02412H85.8806C85.0667 10.5016 83.4927 11.5034 81.6843 11.5034Z"
        fill="currentColor" />
</svg>