<svg width="18" height="18" viewBox="0 0 18 18" fill="currentColor" xmlns="http://www.w3.org/2000/svg">
<g id="alarm">
<path id="Vector" d="M16.2 14.9344L15.6375 14.0625C15.525 13.8938 15.4688 13.725 15.4688 13.5281V7.67815C15.4688 6.01877 14.7657 4.4719 13.4719 3.31877C12.4313 2.39065 11.0813 1.80002 9.6469 1.68752V1.12502C9.6469 0.787524 9.36565 0.478149 9.00002 0.478149C8.66252 0.478149 8.35315 0.759399 8.35315 1.12502V1.6594C8.2969 1.6594 8.24065 1.6594 8.1844 1.68752C4.9219 2.05315 2.47502 4.66877 2.47502 7.79065V13.5281C2.4469 13.8094 2.39065 13.95 2.3344 14.0344L1.80002 14.9344C1.63127 15.2156 1.63127 15.5531 1.80002 15.8344C1.96877 16.0875 2.25002 16.2563 2.5594 16.2563H8.38127V16.875C8.38127 17.2125 8.66252 17.5219 9.02815 17.5219C9.36565 17.5219 9.67503 17.2406 9.67503 16.875V16.2563H15.4688C15.7782 16.2563 16.0594 16.0875 16.2282 15.8344C16.3969 15.5531 16.3969 15.2156 16.2 14.9344ZM3.2344 14.9906L3.43127 14.6531C3.60002 14.3719 3.6844 14.0344 3.74065 13.6406V7.79065C3.74065 5.31565 5.7094 3.2344 8.32503 2.95315C9.92815 2.7844 11.5031 3.26252 12.6563 4.27502C13.6688 5.17502 14.2313 6.3844 14.2313 7.67815V13.5281C14.2313 13.95 14.3438 14.3438 14.5969 14.7375L14.7657 14.9906H3.2344Z" fill="currentColor"/>
</g>
</svg>
