<svg width="18" height="18" viewBox="0 0 18 18" fill="none" xmlns="http://www.w3.org/2000/svg">
<path d="M15.3563 9.50623C15.1031 9.2531 14.7094 9.2531 14.4563 9.50623L9.64688 14.2312V2.24998C9.64688 1.91248 9.36563 1.63123 9.02813 1.63123C8.69063 1.63123 8.40938 1.91248 8.40938 2.24998V14.2594L3.54375 9.4781C3.29063 9.22498 2.89688 9.22498 2.64375 9.4781C2.39063 9.73123 2.39063 10.125 2.64375 10.3781L8.55 16.2C8.6625 16.3125 8.83125 16.3687 9 16.3687C9.16875 16.3687 9.30938 16.3125 9.45 16.2L15.3563 10.3781C15.6094 10.1531 15.6094 9.73123 15.3563 9.50623Z" fill="#00050A"/>
</svg>
