<svg width="19" height="18" viewBox="0 0 19 18" fill="none" xmlns="http://www.w3.org/2000/svg">
<path d="M16.9273 8.55001L11.1054 2.64376C10.8523 2.39064 10.4585 2.39064 10.2054 2.64376C9.95227 2.89689 9.95227 3.29064 10.2054 3.54376L14.9304 8.35314H2.97727C2.63977 8.35314 2.35852 8.63439 2.35852 8.97189C2.35852 9.30939 2.63977 9.61876 2.97727 9.61876H14.9866L10.2054 14.4844C9.95227 14.7375 9.95227 15.1313 10.2054 15.3844C10.3179 15.4969 10.4866 15.5531 10.6554 15.5531C10.8241 15.5531 10.9929 15.4969 11.1054 15.3563L16.9273 9.45001C17.1804 9.19689 17.1804 8.80314 16.9273 8.55001Z" fill="#00050A"/>
</svg>
