<svg width="18" height="18" viewBox="0 0 18 18" fill="none" xmlns="http://www.w3.org/2000/svg">
<path d="M15.75 8.38125H3.74064L8.52189 3.51562C8.77501 3.2625 8.77501 2.86875 8.52189 2.61562C8.26876 2.3625 7.87501 2.3625 7.62189 2.61562L1.80001 8.52187C1.54689 8.775 1.54689 9.16875 1.80001 9.42188L7.62189 15.3281C7.73439 15.4406 7.90314 15.525 8.07189 15.525C8.24064 15.525 8.38126 15.4688 8.52189 15.3562C8.77501 15.1031 8.77501 14.7094 8.52189 14.4563L3.76876 9.64687H15.75C16.0875 9.64687 16.3688 9.36562 16.3688 9.02812C16.3688 8.6625 16.0875 8.38125 15.75 8.38125Z" fill="#00050A"/>
</svg>
