<svg width="19" height="18" viewBox="0 0 19 18" fill="none" xmlns="http://www.w3.org/2000/svg">
<path d="M15.629 7.62189L9.72272 1.80001C9.46959 1.54689 9.07584 1.54689 8.82272 1.80001L2.91647 7.62189C2.66334 7.87501 2.66334 8.26876 2.91647 8.52189C3.16959 8.77501 3.56334 8.77501 3.81647 8.52189L8.62584 3.79689V15.75C8.62584 16.0875 8.90709 16.3688 9.24459 16.3688C9.58209 16.3688 9.89147 16.0875 9.89147 15.75V3.74064L14.7571 8.52189C14.8696 8.63439 15.0383 8.69064 15.2071 8.69064C15.3758 8.69064 15.5446 8.63439 15.6571 8.49376C15.8821 8.26876 15.8821 7.84689 15.629 7.62189Z" fill="#00050A"/>
</svg>
