<svg width="15" height="18" viewBox="0 0 15 18" fill="currentColor" xmlns="http://www.w3.org/2000/svg">
<g id="Group">
<path id="Vector" d="M14.1958 15.1594L13.0427 5.2594C12.9302 4.19065 12.0021 3.37502 10.9333 3.37502H10.3146C10.2865 1.7719 8.96458 0.478149 7.33333 0.478149C5.70208 0.478149 4.38021 1.7719 4.32396 3.37502H3.70521C2.63646 3.37502 1.73646 4.19065 1.59583 5.2594L0.470833 15.1594C0.386458 15.75 0.583332 16.3406 0.977082 16.7906C1.37083 17.2407 1.96146 17.4938 2.55208 17.4938H12.0865C12.6771 17.4938 13.2677 17.2407 13.6615 16.7906C14.0833 16.3406 14.2802 15.75 14.1958 15.1594ZM7.33333 1.74377C8.26146 1.74377 9.02083 2.47502 9.07708 3.37502H5.58958C5.64583 2.47502 6.40521 1.74377 7.33333 1.74377ZM12.7333 15.9469C12.5646 16.1438 12.3396 16.2281 12.0865 16.2281H2.58021C2.32708 16.2281 2.10208 16.1156 1.93333 15.9469C1.76458 15.75 1.70833 15.525 1.73646 15.2719L2.88958 5.3719C2.94583 4.95002 3.31146 4.61252 3.73333 4.61252H5.02708H9.69583H10.9896C11.4115 4.61252 11.7771 4.95002 11.8333 5.3719L12.9865 15.2719C12.9583 15.525 12.9021 15.7781 12.7333 15.9469Z" fill="currentColor"/>
<path id="Vector_2" d="M8.48645 8.55001L6.65833 10.3781L6.20833 9.92814C5.9552 9.67501 5.56145 9.67501 5.30833 9.92814C5.0552 10.1813 5.0552 10.575 5.30833 10.8281L6.20833 11.7281C6.32083 11.8406 6.48958 11.925 6.65833 11.925C6.82708 11.925 6.99583 11.8688 7.10833 11.7281L9.38645 9.45001C9.63958 9.19689 9.63958 8.80314 9.38645 8.55001C9.13333 8.29689 8.71145 8.29689 8.48645 8.55001Z" fill="currentColor"/>
</g>
</svg>
