<svg xmlns="http://www.w3.org/2000/svg" width="15" height="15" viewBox="0 0 24 24" fill="none">
  <path d="M21.075 23.1H14.9625C14.5125 23.1 14.1 22.725 14.1 22.2375V20.175C14.1 19.6125 13.875 19.0875 13.5 18.675C13.125 18.3 12.6 18.075 12.075 18.075C11.5125 18.075 11.025 18.2625 10.6125 18.675C10.1625 19.125 9.89995 19.6875 9.89995 20.325V22.275C9.89995 22.725 9.52495 23.1375 9.03745 23.1375H2.92495C1.64995 23.1375 0.637451 22.125 0.637451 20.85V3.225C0.637451 1.95 1.64995 0.9375 2.92495 0.9375H21.0375C22.3125 0.9375 23.325 1.95 23.325 3.225V20.85C23.3625 22.0875 22.3125 23.1 21.075 23.1ZM15.7875 21.4125H21.0375C21.375 21.4125 21.6375 21.15 21.6375 20.8125V3.1875C21.6375 2.85 21.375 2.5875 21.0375 2.5875H2.92495C2.62495 2.5875 2.36245 2.85 2.36245 3.1875V20.8125C2.36245 21.15 2.62495 21.4125 2.96245 21.4125H8.21245V20.325C8.21245 19.275 8.66245 18.225 9.41245 17.475C10.1625 16.7625 11.1 16.3875 12.075 16.3875C13.05 16.425 13.95 16.8 14.6625 17.5125C15.375 18.225 15.7875 19.1625 15.7875 20.175V21.4125Z" fill="currentColor"/>
  <path d="M8.02498 6.6376H6.52498C6.07498 6.6376 5.66248 6.2626 5.66248 5.7751C5.66248 5.2876 6.03748 4.9126 6.52498 4.9126H8.02498C8.47498 4.9126 8.88748 5.2876 8.88748 5.7751C8.88748 6.2626 8.47498 6.6376 8.02498 6.6376Z" fill="currentColor"/>
  <path d="M17.625 6.6376H16.125C15.675 6.6376 15.2625 6.2626 15.2625 5.7751C15.2625 5.2876 15.6375 4.9126 16.125 4.9126H17.625C18.075 4.9126 18.4875 5.2876 18.4875 5.7751C18.4875 6.2626 18.1125 6.6376 17.625 6.6376Z" fill="currentColor"/>
  <path d="M8.02498 10.8H6.52498C6.07498 10.8 5.66248 10.425 5.66248 9.93745C5.66248 9.44995 6.03748 9.07495 6.52498 9.07495H8.02498C8.47498 9.07495 8.88748 9.44995 8.88748 9.93745C8.88748 10.425 8.47498 10.8 8.02498 10.8Z" fill="currentColor"/>
  <path d="M17.625 10.8H16.125C15.675 10.8 15.2625 10.425 15.2625 9.93745C15.2625 9.44995 15.6375 9.07495 16.125 9.07495H17.625C18.075 9.07495 18.4875 9.44995 18.4875 9.93745C18.4875 10.425 18.1125 10.8 17.625 10.8Z" fill="currentColor"/>
  <path d="M8.02498 14.9625H6.52498C6.07498 14.9625 5.66248 14.5875 5.66248 14.1C5.66248 13.6125 6.03748 13.2375 6.52498 13.2375H8.02498C8.47498 13.2375 8.88748 13.6125 8.88748 14.1C8.88748 14.5875 8.47498 14.9625 8.02498 14.9625Z" fill="currentColor"/>
  <path d="M17.625 14.9625H16.125C15.675 14.9625 15.2625 14.5875 15.2625 14.1C15.2625 13.6125 15.6375 13.2375 16.125 13.2375H17.625C18.075 13.2375 18.4875 13.6125 18.4875 14.1C18.4875 14.5875 18.1125 14.9625 17.625 14.9625Z" fill="currentColor"/>
</svg>
