<svg width="16" height="16" viewBox="0 0 16 16" fill="none" xmlns="http://www.w3.org/2000/svg">
<g id="calender-alt-2">
<path id="Vector" d="M14 2.65002H12.7V2.10002C12.7 1.80002 12.45 1.52502 12.125 1.52502C11.8 1.52502 11.55 1.77502 11.55 2.10002V2.65002H4.425V2.10002C4.425 1.80002 4.175 1.52502 3.85 1.52502C3.525 1.52502 3.275 1.77502 3.275 2.10002V2.65002H2C1.15 2.65002 0.425003 3.35002 0.425003 4.22502V12.925C0.425003 13.775 1.125 14.5 2 14.5H14C14.85 14.5 15.575 13.8 15.575 12.925V4.20002C15.575 3.35002 14.85 2.65002 14 2.65002ZM1.575 7.30002H3.7V9.77503H1.575V7.30002ZM4.825 7.30002H7.45V9.77503H4.825V7.30002ZM7.45 10.9V13.35H4.825V10.9H7.45ZM8.575 10.9H11.2V13.35H8.575V10.9ZM8.575 9.77503V7.30002H11.2V9.77503H8.575ZM12.3 7.30002H14.425V9.77503H12.3V7.30002ZM2 3.77502H3.3V4.30002C3.3 4.60002 3.55 4.87502 3.875 4.87502C4.2 4.87502 4.45 4.62502 4.45 4.30002V3.77502H11.6V4.30002C11.6 4.60002 11.85 4.87502 12.175 4.87502C12.5 4.87502 12.75 4.62502 12.75 4.30002V3.77502H14C14.25 3.77502 14.45 3.97502 14.45 4.22502V6.17502H1.575V4.22502C1.575 3.97502 1.75 3.77502 2 3.77502ZM1.575 12.9V10.875H3.7V13.325H2C1.75 13.35 1.575 13.15 1.575 12.9ZM14 13.35H12.3V10.9H14.425V12.925C14.45 13.15 14.25 13.35 14 13.35Z" fill="#6D7177"/>
</g>
</svg>
