<svg width="19" height="18" viewBox="0 0 19 18" fill="none" xmlns="http://www.w3.org/2000/svg">
<g clip-path="url(#clip0_44_9714)">
<path d="M18.2837 3.23439C17.9743 3.09376 17.5805 3.20626 17.4399 3.54376L14.0368 10.6875C13.9524 10.8563 13.7837 10.9688 13.5868 10.9688H5.48678C5.23365 10.9688 5.00865 10.7719 4.98053 10.5188L4.19303 2.22189C4.13678 1.68751 3.7149 1.29376 3.18053 1.29376H1.6899C1.3524 1.29376 1.04303 1.57501 1.04303 1.94064C1.04303 2.30626 1.32428 2.58751 1.6899 2.58751H2.95553L3.7149 10.6594C3.79928 11.5594 4.55865 12.2625 5.45865 12.2625H13.5587C14.2337 12.2625 14.8524 11.8688 15.1618 11.25L18.5368 4.10626C18.7337 3.76876 18.593 3.37501 18.2837 3.23439Z" fill="#00050A"/>
<path d="M9.84617 8.24064C9.95867 8.35314 10.1274 8.43751 10.2962 8.43751C10.4649 8.43751 10.6337 8.38126 10.7462 8.24064L12.9118 6.04689C13.1649 5.79376 13.1649 5.40001 12.9118 5.14689C12.6587 4.89376 12.2649 4.89376 12.0118 5.14689L10.9149 6.24376V1.51876C10.9149 1.18126 10.6337 0.871887 10.268 0.871887C9.93054 0.871887 9.62117 1.15314 9.62117 1.51876V6.27189L8.52429 5.17501C8.27117 4.92189 7.87742 4.92189 7.62429 5.17501C7.37117 5.42814 7.37117 5.82189 7.62429 6.07501L9.84617 8.24064Z" fill="#00050A"/>
<path d="M12.9118 13.05C11.7868 13.05 10.8586 13.9781 10.8586 15.1031C10.8586 16.2281 11.7868 17.1562 12.9118 17.1562C14.0368 17.1562 14.9649 16.2281 14.9649 15.1031C14.9649 13.9781 14.0368 13.05 12.9118 13.05ZM12.9118 15.8625C12.4899 15.8625 12.1243 15.525 12.1243 15.075C12.1243 14.625 12.4618 14.2875 12.9118 14.2875C13.3618 14.2875 13.6993 14.625 13.6993 15.075C13.6993 15.525 13.3618 15.8625 12.9118 15.8625Z" fill="#00050A"/>
<path d="M6.5274 13.05C5.4024 13.05 4.47427 13.9781 4.47427 15.1031C4.47427 16.2281 5.4024 17.1562 6.5274 17.1562C7.6524 17.1562 8.58052 16.2281 8.58052 15.1031C8.58052 13.9781 7.6524 13.05 6.5274 13.05ZM6.5274 15.8625C6.10552 15.8625 5.7399 15.525 5.7399 15.075C5.7399 14.625 6.0774 14.2875 6.5274 14.2875C6.9774 14.2875 7.3149 14.625 7.3149 15.075C7.3149 15.525 6.9774 15.8625 6.5274 15.8625Z" fill="#00050A"/>
</g>
<defs>
<clipPath id="clip0_44_9714">
<rect width="18" height="18" fill="white" transform="translate(0.846161)"/>
</clipPath>
</defs>
</svg>
