<svg width="19" height="18" viewBox="0 0 19 18" fill="none" xmlns="http://www.w3.org/2000/svg">
<g clip-path="url(#clip0_44_9737)">
<path d="M11.3533 1.57501H7.41581C3.81581 1.57501 0.890808 4.41564 0.890808 7.90314C0.890808 11.3906 3.14081 13.8375 8.65331 16.3125C8.79393 16.3688 8.90643 16.3969 9.04706 16.3969C9.24393 16.3969 9.41268 16.3406 9.58143 16.2281C9.86268 16.0594 10.0314 15.75 10.0314 15.4125V14.2031H11.3533C14.9533 14.2031 17.9064 11.3625 17.9064 7.87501C17.9064 4.38751 14.9533 1.57501 11.3533 1.57501ZM11.3533 12.9938H9.72206C9.18768 12.9938 8.73768 13.4438 8.73768 13.9781V15.0188C3.98456 12.825 2.12831 10.8 2.12831 7.93126C2.12831 5.14689 4.49081 2.86876 7.41581 2.86876H11.3533C14.2502 2.86876 16.6408 5.14689 16.6408 7.93126C16.6408 10.7156 14.2502 12.9938 11.3533 12.9938Z" fill="#00050A"/>
<path d="M5.81271 7.28436C5.44708 7.28436 5.16583 7.56561 5.16583 7.93124C5.16583 8.29686 5.44708 8.57811 5.81271 8.57811C6.17833 8.57811 6.45958 8.29686 6.45958 7.93124C6.45958 7.56561 6.17833 7.28436 5.81271 7.28436Z" fill="#00050A"/>
<path d="M9.38455 7.28436C9.01892 7.28436 8.73767 7.56561 8.73767 7.93124C8.73767 8.29686 9.01892 8.57811 9.38455 8.57811C9.72205 8.57811 10.0314 8.29686 10.0314 7.93124C10.0314 7.56561 9.72205 7.28436 9.38455 7.28436Z" fill="#00050A"/>
<path d="M12.9564 7.28436C12.5908 7.28436 12.3096 7.56561 12.3096 7.93124C12.3096 8.29686 12.5908 8.57811 12.9564 8.57811C13.3221 8.57811 13.6033 8.29686 13.6033 7.93124C13.6033 7.56561 13.2939 7.28436 12.9564 7.28436Z" fill="#00050A"/>
</g>
<defs>
<clipPath id="clip0_44_9737">
<rect width="18" height="18" fill="white" transform="translate(0.384583)"/>
</clipPath>
</defs>
</svg>
