<svg width="19" height="18" viewBox="0 0 19 18" fill="none" xmlns="http://www.w3.org/2000/svg">
<g clip-path="url(#clip0_131_4698)">
<path d="M9.18183 0.506226C4.48495 0.506226 0.68808 4.3031 0.68808 8.99998C0.68808 13.6969 4.48495 17.5219 9.18183 17.5219C13.8787 17.5219 17.7037 13.6969 17.7037 8.99998C17.7037 4.3031 13.8787 0.506226 9.18183 0.506226ZM9.18183 16.2562C5.18808 16.2562 1.9537 12.9937 1.9537 8.99998C1.9537 5.00623 5.18808 1.77185 9.18183 1.77185C13.1756 1.77185 16.4381 5.03435 16.4381 9.0281C16.4381 12.9937 13.1756 16.2562 9.18183 16.2562Z" fill="#00050A"/>
<path d="M11.6006 6.38432L8.2537 9.64682L6.73495 8.1562C6.48183 7.90307 6.08808 7.9312 5.83495 8.1562C5.58183 8.40932 5.60995 8.80307 5.83495 9.0562L7.63495 10.7999C7.8037 10.9687 8.0287 11.0531 8.2537 11.0531C8.4787 11.0531 8.7037 10.9687 8.87245 10.7999L12.5006 7.31245C12.7537 7.05932 12.7537 6.66557 12.5006 6.41245C12.2475 6.15932 11.8537 6.15932 11.6006 6.38432Z" fill="#00050A"/>
</g>
<defs>
<clipPath id="clip0_131_4698">
<rect width="18" height="18" fill="white" transform="translate(0.181824)"/>
</clipPath>
</defs>
</svg>
