<svg width="19" height="18" viewBox="0 0 19 18" fill="none" xmlns="http://www.w3.org/2000/svg">
<g clip-path="url(#clip0_131_4697)">
<path d="M12.6869 8.35308H10.4369V6.1312C10.4369 5.7937 10.1557 5.51245 9.79003 5.51245C9.45253 5.51245 9.17128 5.7937 9.17128 6.15933V8.3812H6.94941C6.61191 8.3812 6.33066 8.66245 6.33066 9.02808C6.33066 9.36558 6.61191 9.64683 6.97753 9.64683H9.19941V11.8687C9.19941 12.2062 9.48066 12.4875 9.84628 12.4875C10.1838 12.4875 10.465 12.2062 10.465 11.8406V9.6187H12.6869C13.0244 9.6187 13.3057 9.33745 13.3057 8.97183C13.3057 8.63433 13.0244 8.35308 12.6869 8.35308Z" fill="#00050A"/>
<path d="M9.81815 0.506226C5.12128 0.506226 1.3244 4.3031 1.3244 8.99998C1.3244 13.6969 5.1494 17.5219 9.84628 17.5219C14.5432 17.5219 18.3682 13.6969 18.3682 8.99998C18.34 4.3031 14.515 0.506226 9.81815 0.506226ZM9.81815 16.2562C5.8244 16.2562 2.59003 12.9937 2.59003 8.99998C2.59003 5.00623 5.8244 1.77185 9.81815 1.77185C13.8119 1.77185 17.0744 5.00623 17.0744 8.99998C17.0744 12.9937 13.8119 16.2562 9.81815 16.2562Z" fill="#00050A"/>
</g>
<defs>
<clipPath id="clip0_131_4697">
<rect width="18" height="18" fill="white" transform="translate(0.818146)"/>
</clipPath>
</defs>
</svg>
