<svg width="19" height="18" viewBox="0 0 19 18" fill="none" xmlns="http://www.w3.org/2000/svg">
<path d="M9.99089 9.00001L16.8534 2.13751C17.1065 1.88439 17.1065 1.49064 16.8534 1.23751C16.6003 0.984387 16.2065 0.984387 15.9534 1.23751L9.09089 8.10001L2.22839 1.23751C1.97527 0.984387 1.58152 0.984387 1.32839 1.23751C1.07527 1.49064 1.07527 1.88439 1.32839 2.13751L8.19089 9.00001L1.32839 15.8625C1.07527 16.1156 1.07527 16.5094 1.32839 16.7625C1.44089 16.875 1.60964 16.9594 1.77839 16.9594C1.94714 16.9594 2.11589 16.9031 2.22839 16.7625L9.09089 9.90001L15.9534 16.7625C16.0659 16.875 16.2346 16.9594 16.4034 16.9594C16.5721 16.9594 16.7409 16.9031 16.8534 16.7625C17.1065 16.5094 17.1065 16.1156 16.8534 15.8625L9.99089 9.00001Z" fill="#00050A"/>
</svg>
