<svg width="18" height="18" viewBox="0 0 18 18" fill="currentColor" xmlns="http://www.w3.org/2000/svg">
<g id="Group">
<path id="Vector" d="M8.86146 5.51251C6.94896 5.51251 5.37396 7.08751 5.37396 9.00001C5.37396 10.9406 6.94896 12.4875 8.86146 12.4875C10.774 12.4875 12.349 10.9406 12.349 9.00001C12.349 7.08751 10.774 5.51251 8.86146 5.51251ZM8.86146 11.25C7.62396 11.25 6.63959 10.2375 6.63959 9.02814C6.63959 7.79064 7.62396 6.80626 8.86146 6.80626C10.099 6.80626 11.0833 7.79064 11.0833 9.00001C11.0833 10.2375 10.0708 11.25 8.86146 11.25Z" fill="currentColor"/>
<path id="Vector_2" d="M16.9052 10.7156L15.3302 9.84377C15.3865 9.5344 15.4146 9.22503 15.4146 8.91565C15.4146 8.57815 15.3865 8.26877 15.3583 7.9594L16.9615 7.0594C17.3271 6.86252 17.4677 6.41252 17.299 6.01877L15.6677 3.26252C15.4708 2.92502 15.0208 2.7844 14.6552 2.92502L12.9677 3.85315C12.8833 3.7969 12.799 3.71252 12.7427 3.65627C12.4333 3.40315 12.1521 3.15002 11.7021 2.92502C11.674 2.92502 11.6458 2.8969 11.6458 2.84065V1.82815C11.6458 1.0969 11.0552 0.478149 10.2958 0.478149H7.39896C6.66771 0.478149 6.04896 1.0969 6.04896 1.82815V2.92502C6.04896 2.95315 6.02083 2.98127 5.99271 3.0094C5.57083 3.20627 5.26146 3.48752 4.92396 3.74065C4.86771 3.7969 4.78333 3.85315 4.72708 3.9094L3.23646 3.06565C2.67396 2.75627 2.19583 2.95315 1.99896 3.29065L0.452081 5.96252C0.367706 6.18752 0.339581 6.41252 0.395831 6.63753C0.452081 6.86252 0.592706 7.03127 0.789581 7.14377L2.36458 7.98752C2.30833 8.26877 2.30833 8.57815 2.30833 8.94378C2.30833 9.25315 2.33646 9.56252 2.36458 9.8719L0.733331 10.7719C0.367706 10.9688 0.227081 11.4188 0.395831 11.8125L2.02708 14.5688C2.22396 14.9063 2.64583 15.0469 3.03958 14.9063L4.72708 13.9782C4.81146 14.0344 4.86771 14.0907 4.95208 14.175C5.26146 14.4563 5.57083 14.7094 6.02083 14.9063C6.04896 14.9063 6.07708 14.9344 6.07708 14.9907V16.2C6.07708 16.9313 6.66771 17.55 7.42708 17.55H10.2958C11.0271 17.55 11.6458 16.9313 11.6458 16.2V14.9063C11.6458 14.8782 11.674 14.85 11.7021 14.8219C12.124 14.625 12.4052 14.3719 12.7427 14.0907C12.8271 14.0344 12.8833 13.9782 12.9677 13.8938L14.4583 14.7375C15.0208 15.0469 15.4708 14.85 15.6958 14.5125L17.2708 11.8406C17.3833 11.6438 17.4115 11.4188 17.3552 11.2219C17.299 11.025 17.1021 10.8281 16.9052 10.7156ZM14.7677 13.5L13.4177 12.7407C13.024 12.5156 12.574 12.5719 12.2365 12.8532C12.0958 12.9657 11.9833 13.05 11.8708 13.1625C11.5896 13.4157 11.3927 13.5844 11.1115 13.6969C10.6615 13.9219 10.3521 14.4 10.3521 14.9063V16.1438C10.3521 16.2 10.324 16.2282 10.2677 16.2282H7.39896C7.34271 16.2282 7.31458 16.2 7.31458 16.1438V14.9344C7.31458 14.4282 7.00521 13.95 6.55521 13.725C6.27396 13.5844 6.04896 13.4157 5.76771 13.1625C5.65521 13.0782 5.54271 12.9657 5.40208 12.8813C5.20521 12.7407 4.98021 12.6563 4.72708 12.6563C4.55833 12.6563 4.36146 12.7125 4.19271 12.7969L2.84271 13.5563L1.71771 11.6438L3.03958 10.9125C3.43333 10.6875 3.65833 10.2656 3.60208 9.78753C3.57396 9.50628 3.54583 9.22503 3.54583 8.94378C3.54583 8.6344 3.57396 8.35315 3.60208 8.12815C3.68646 7.65002 3.46146 7.1719 3.03958 6.9469L1.80208 6.24377L2.89896 4.3594L4.24896 5.11877C4.64271 5.34377 5.09271 5.28752 5.43021 5.00627C5.54271 4.9219 5.65521 4.8094 5.76771 4.72502C6.04896 4.4719 6.27396 4.30315 6.55521 4.16252C7.03333 3.93752 7.31458 3.4594 7.31458 2.95315V1.85627C7.31458 1.80002 7.34271 1.7719 7.39896 1.7719H10.2677C10.324 1.7719 10.3521 1.80002 10.3521 1.85627V2.92502C10.3521 3.43127 10.6615 3.9094 11.1115 4.1344C11.3927 4.27502 11.5896 4.44377 11.8708 4.66878C11.9833 4.78127 12.0958 4.86565 12.2365 4.97815C12.574 5.2594 13.0521 5.28752 13.4177 5.06252L14.7677 4.30315L15.8927 6.21565L14.599 6.9469C14.2052 7.1719 13.9802 7.65002 14.0646 8.12815C14.0927 8.38127 14.1208 8.66253 14.1208 8.94378C14.1208 9.22503 14.0927 9.50628 14.0365 9.78753C13.9521 10.2656 14.1771 10.7157 14.599 10.9407L15.8646 11.6438L14.7677 13.5Z" fill="currentColor"/>
</g>
</svg>
