<svg width="19" height="18" viewBox="0 0 19 18" fill="none" xmlns="http://www.w3.org/2000/svg">
<path d="M13.3792 0.506226H10.2011C9.46982 0.506226 8.85107 1.12498 8.85107 1.85623V3.79685C8.85107 4.13435 9.13232 4.4156 9.46982 4.4156C9.80732 4.4156 10.1167 4.13435 10.1167 3.79685V1.8281C10.1167 1.77185 10.1448 1.74373 10.2011 1.74373H13.3792C14.0542 1.74373 14.5886 2.2781 14.5886 2.9531V15.0187C14.5886 15.6937 14.0542 16.2281 13.3792 16.2281H10.2011C10.1448 16.2281 10.1167 16.2 10.1167 16.1437V14.2031C10.1167 13.8656 9.83545 13.5844 9.46982 13.5844C9.1042 13.5844 8.85107 13.8656 8.85107 14.2031V16.1437C8.85107 16.875 9.46982 17.4937 10.2011 17.4937H13.3792C14.7573 17.4937 15.8542 16.3687 15.8542 15.0187V2.98123C15.8542 1.6031 14.7292 0.506226 13.3792 0.506226Z" fill="#00050A"/>
<path d="M11.1011 8.54999L8.28857 5.68124C8.03545 5.42811 7.6417 5.42811 7.38857 5.68124C7.13545 5.93436 7.13545 6.32811 7.38857 6.58124L9.13232 8.35311H4.12607C3.78857 8.35311 3.50732 8.63436 3.50732 8.97186C3.50732 9.30936 3.78857 9.59061 4.12607 9.59061H9.16045L7.38857 11.3906C7.13545 11.6437 7.13545 12.0375 7.38857 12.2906C7.50107 12.4031 7.66982 12.4594 7.83857 12.4594C8.00732 12.4594 8.17607 12.4031 8.28857 12.2625L11.1011 9.39374C11.3542 9.19686 11.3542 8.80311 11.1011 8.54999Z" fill="#00050A"/>
</svg>
