<svg xmlns="http://www.w3.org/2000/svg" width="12" height="20" viewBox="0 0 18 24" fill="none">
  <path d="M13.95 0.674988H9.71248C8.73748 0.674988 7.91248 1.49999 7.91248 2.47499V5.06249C7.91248 5.51249 8.28748 5.88749 8.73748 5.88749C9.18748 5.88749 9.59997 5.51249 9.59997 5.06249V2.43749C9.59997 2.36249 9.63748 2.32499 9.71248 2.32499H13.95C14.85 2.32499 15.5625 3.03749 15.5625 3.93749V20.025C15.5625 20.925 14.85 21.6375 13.95 21.6375H9.71248C9.63748 21.6375 9.59997 21.6 9.59997 21.525V18.9375C9.59997 18.4875 9.22498 18.1125 8.73748 18.1125C8.24998 18.1125 7.91248 18.4875 7.91248 18.9375V21.525C7.91248 22.5 8.73748 23.325 9.71248 23.325H13.95C15.7875 23.325 17.25 21.825 17.25 20.025V3.97499C17.25 2.13749 15.75 0.674988 13.95 0.674988Z" fill="currentColor"/>
  <path d="M3.60002 12.825H10.3125C10.7625 12.825 11.1375 12.45 11.1375 12C11.1375 11.55 10.7625 11.175 10.3125 11.175H3.63752L5.96252 8.8125C6.30002 8.475 6.30002 7.95 5.96252 7.6125C5.62502 7.275 5.10002 7.275 4.76252 7.6125L1.01252 11.4375C0.675024 11.775 0.675024 12.3 1.01252 12.6375L4.76252 16.4625C4.91252 16.6125 5.13752 16.725 5.36252 16.725C5.58752 16.725 5.77502 16.65 5.96252 16.5C6.30002 16.1625 6.30002 15.6375 5.96252 15.3L3.60002 12.825Z" fill="currentColor"/>
</svg>
