<svg width="19" height="18" viewBox="0 0 19 18" fill="none" xmlns="http://www.w3.org/2000/svg">
<g clip-path="url(#clip0_44_9713)">
<path d="M9.53844 14.8219C3.96969 14.8219 1.21344 9.50624 1.10094 9.28124C1.01656 9.11249 1.01656 8.88749 1.10094 8.71874C1.21344 8.49374 3.96969 3.20624 9.53844 3.20624C15.1072 3.20624 17.8634 8.49374 17.9759 8.71874C18.0603 8.88749 18.0603 9.11249 17.9759 9.28124C17.8634 9.50624 15.1072 14.8219 9.53844 14.8219ZM2.39469 8.99999C3.01344 10.0406 5.43219 13.5562 9.53844 13.5562C13.6447 13.5562 16.0634 10.0406 16.6822 8.99999C16.0634 7.95936 13.6447 4.44374 9.53844 4.44374C5.43219 4.44374 3.01344 7.95936 2.39469 8.99999Z" fill="#00050A"/>
<path d="M9.53845 11.3906C8.21658 11.3906 7.14783 10.3219 7.14783 9C7.14783 7.67813 8.21658 6.60938 9.53845 6.60938C10.8603 6.60938 11.9291 7.67813 11.9291 9C11.9291 10.3219 10.8603 11.3906 9.53845 11.3906ZM9.53845 7.875C8.9197 7.875 8.41345 8.38125 8.41345 9C8.41345 9.61875 8.9197 10.125 9.53845 10.125C10.1572 10.125 10.6635 9.61875 10.6635 9C10.6635 8.38125 10.1572 7.875 9.53845 7.875Z" fill="#00050A"/>
</g>
<defs>
<clipPath id="clip0_44_9713">
<rect width="18" height="18" fill="white" transform="translate(0.538452)"/>
</clipPath>
</defs>
</svg>
