<svg width="19" height="18" viewBox="0 0 19 18" fill="none" xmlns="http://www.w3.org/2000/svg">
<g clip-path="url(#clip0_44_9750)">
<path d="M9.86146 5.51251C7.94896 5.51251 6.37396 7.08751 6.37396 9.00001C6.37396 10.9406 7.94896 12.4875 9.86146 12.4875C11.774 12.4875 13.349 10.9406 13.349 9.00001C13.349 7.08751 11.774 5.51251 9.86146 5.51251ZM9.86146 11.25C8.62396 11.25 7.63959 10.2375 7.63959 9.02814C7.63959 7.79064 8.62396 6.80626 9.86146 6.80626C11.099 6.80626 12.0833 7.79064 12.0833 9.00001C12.0833 10.2375 11.0708 11.25 9.86146 11.25Z" fill="#00050A"/>
<path d="M17.9052 10.7156L16.3302 9.84377C16.3865 9.5344 16.4146 9.22503 16.4146 8.91565C16.4146 8.57815 16.3865 8.26877 16.3583 7.9594L17.9615 7.0594C18.3271 6.86252 18.4677 6.41252 18.299 6.01877L16.6677 3.26252C16.4708 2.92502 16.0208 2.7844 15.6552 2.92502L13.9677 3.85315C13.8833 3.7969 13.799 3.71252 13.7427 3.65627C13.4333 3.40315 13.1521 3.15002 12.7021 2.92502C12.674 2.92502 12.6458 2.8969 12.6458 2.84065V1.82815C12.6458 1.0969 12.0552 0.478149 11.2958 0.478149H8.39896C7.66771 0.478149 7.04896 1.0969 7.04896 1.82815V2.92502C7.04896 2.95315 7.02083 2.98127 6.99271 3.0094C6.57083 3.20627 6.26146 3.48752 5.92396 3.74065C5.86771 3.7969 5.78333 3.85315 5.72708 3.9094L4.23646 3.06565C3.67396 2.75627 3.19583 2.95315 2.99896 3.29065L1.45208 5.96252C1.36771 6.18752 1.33958 6.41252 1.39583 6.63753C1.45208 6.86252 1.59271 7.03127 1.78958 7.14377L3.36458 7.98752C3.30833 8.26877 3.30833 8.57815 3.30833 8.94378C3.30833 9.25315 3.33646 9.56252 3.36458 9.8719L1.73333 10.7719C1.36771 10.9688 1.22708 11.4188 1.39583 11.8125L3.02708 14.5688C3.22396 14.9063 3.64583 15.0469 4.03958 14.9063L5.72708 13.9782C5.81146 14.0344 5.86771 14.0907 5.95208 14.175C6.26146 14.4563 6.57083 14.7094 7.02083 14.9063C7.04896 14.9063 7.07708 14.9344 7.07708 14.9907V16.2C7.07708 16.9313 7.66771 17.55 8.42708 17.55H11.2958C12.0271 17.55 12.6458 16.9313 12.6458 16.2V14.9063C12.6458 14.8782 12.674 14.85 12.7021 14.8219C13.124 14.625 13.4052 14.3719 13.7427 14.0907C13.8271 14.0344 13.8833 13.9782 13.9677 13.8938L15.4583 14.7375C16.0208 15.0469 16.4708 14.85 16.6958 14.5125L18.2708 11.8406C18.3833 11.6438 18.4115 11.4188 18.3552 11.2219C18.299 11.025 18.1021 10.8281 17.9052 10.7156ZM15.7677 13.5L14.4177 12.7407C14.024 12.5156 13.574 12.5719 13.2365 12.8532C13.0958 12.9657 12.9833 13.05 12.8708 13.1625C12.5896 13.4157 12.3927 13.5844 12.1115 13.6969C11.6615 13.9219 11.3521 14.4 11.3521 14.9063V16.1438C11.3521 16.2 11.324 16.2282 11.2677 16.2282H8.39896C8.34271 16.2282 8.31458 16.2 8.31458 16.1438V14.9344C8.31458 14.4282 8.00521 13.95 7.55521 13.725C7.27396 13.5844 7.04896 13.4157 6.76771 13.1625C6.65521 13.0782 6.54271 12.9657 6.40208 12.8813C6.20521 12.7407 5.98021 12.6563 5.72708 12.6563C5.55833 12.6563 5.36146 12.7125 5.19271 12.7969L3.84271 13.5563L2.71771 11.6438L4.03958 10.9125C4.43333 10.6875 4.65833 10.2656 4.60208 9.78753C4.57396 9.50628 4.54583 9.22503 4.54583 8.94378C4.54583 8.6344 4.57396 8.35315 4.60208 8.12815C4.68646 7.65002 4.46146 7.1719 4.03958 6.9469L2.80208 6.24377L3.89896 4.3594L5.24896 5.11877C5.64271 5.34377 6.09271 5.28752 6.43021 5.00627C6.54271 4.9219 6.65521 4.8094 6.76771 4.72502C7.04896 4.4719 7.27396 4.30315 7.55521 4.16252C8.03333 3.93752 8.31458 3.4594 8.31458 2.95315V1.85627C8.31458 1.80002 8.34271 1.7719 8.39896 1.7719H11.2677C11.324 1.7719 11.3521 1.80002 11.3521 1.85627V2.92502C11.3521 3.43127 11.6615 3.9094 12.1115 4.1344C12.3927 4.27502 12.5896 4.44377 12.8708 4.66878C12.9833 4.78127 13.0958 4.86565 13.2365 4.97815C13.574 5.2594 14.0521 5.28752 14.4177 5.06252L15.7677 4.30315L16.8927 6.21565L15.599 6.9469C15.2052 7.1719 14.9802 7.65002 15.0646 8.12815C15.0927 8.38127 15.1208 8.66253 15.1208 8.94378C15.1208 9.22503 15.0927 9.50628 15.0365 9.78753C14.9521 10.2656 15.1771 10.7157 15.599 10.9407L16.8646 11.6438L15.7677 13.5Z" fill="#00050A"/>
</g>
<defs>
<clipPath id="clip0_44_9750">
<rect width="18" height="18" fill="white" transform="translate(0.833344)"/>
</clipPath>
</defs>
</svg>
