<svg width="18" height="18" viewBox="0 0 18 18" fill="none" xmlns="http://www.w3.org/2000/svg">
<path d="M6.10313 0.956238H2.53125C1.575 0.956238 0.7875 1.74374 0.7875 2.69999V6.27186C0.7875 7.22811 1.575 8.01561 2.53125 8.01561H6.10313C7.05938 8.01561 7.84688 7.22811 7.84688 6.27186V2.72811C7.875 1.74374 7.0875 0.956238 6.10313 0.956238ZM6.60938 6.29999C6.60938 6.58124 6.38438 6.80624 6.10313 6.80624H2.53125C2.25 6.80624 2.025 6.58124 2.025 6.29999V2.72811C2.025 2.44686 2.25 2.22186 2.53125 2.22186H6.10313C6.38438 2.22186 6.60938 2.44686 6.60938 2.72811V6.29999Z" fill="#00050A"/>
<path d="M15.4688 0.956238H11.8969C10.9406 0.956238 10.1531 1.74374 10.1531 2.69999V6.27186C10.1531 7.22811 10.9406 8.01561 11.8969 8.01561H15.4688C16.425 8.01561 17.2125 7.22811 17.2125 6.27186V2.72811C17.2125 1.74374 16.425 0.956238 15.4688 0.956238ZM15.975 6.29999C15.975 6.58124 15.75 6.80624 15.4688 6.80624H11.8969C11.6156 6.80624 11.3906 6.58124 11.3906 6.29999V2.72811C11.3906 2.44686 11.6156 2.22186 11.8969 2.22186H15.4688C15.75 2.22186 15.975 2.44686 15.975 2.72811V6.29999Z" fill="#00050A"/>
<path d="M6.10313 9.9281H2.53125C1.575 9.9281 0.7875 10.7156 0.7875 11.6719V15.2437C0.7875 16.2 1.575 16.9875 2.53125 16.9875H6.10313C7.05938 16.9875 7.84688 16.2 7.84688 15.2437V11.7C7.875 10.7156 7.0875 9.9281 6.10313 9.9281ZM6.60938 15.2719C6.60938 15.5531 6.38438 15.7781 6.10313 15.7781H2.53125C2.25 15.7781 2.025 15.5531 2.025 15.2719V11.7C2.025 11.4187 2.25 11.1937 2.53125 11.1937H6.10313C6.38438 11.1937 6.60938 11.4187 6.60938 11.7V15.2719Z" fill="#00050A"/>
<path d="M15.4688 9.9281H11.8969C10.9406 9.9281 10.1531 10.7156 10.1531 11.6719V15.2437C10.1531 16.2 10.9406 16.9875 11.8969 16.9875H15.4688C16.425 16.9875 17.2125 16.2 17.2125 15.2437V11.7C17.2125 10.7156 16.425 9.9281 15.4688 9.9281ZM15.975 15.2719C15.975 15.5531 15.75 15.7781 15.4688 15.7781H11.8969C11.6156 15.7781 11.3906 15.5531 11.3906 15.2719V11.7C11.3906 11.4187 11.6156 11.1937 11.8969 11.1937H15.4688C15.75 11.1937 15.975 11.4187 15.975 11.7V15.2719Z" fill="#00050A"/>
</svg>
