<svg xmlns="http://www.w3.org/2000/svg" width="15" height="15" viewBox="0 0 20 24" fill="none">
  <path d="M19.1125 3.26251C19.1125 1.83751 17.95 0.637512 16.4875 0.637512H3.51251C2.08751 0.637512 0.887512 1.80001 0.887512 3.26251V22.0875C0.887512 22.3875 1.07501 22.6875 1.33751 22.8375C1.60001 22.9875 1.93751 22.95 2.20001 22.8L4.07501 21.5625L6.58751 23.2125C6.88751 23.4 7.22501 23.4 7.52501 23.2125L10 21.5625L12.475 23.2125C12.625 23.325 12.775 23.3625 12.925 23.3625C13.075 23.3625 13.2625 23.325 13.375 23.2125L15.85 21.5625L17.725 22.8375C17.9875 23.025 18.325 23.025 18.5875 22.875C18.85 22.725 19.0375 22.425 19.0375 22.125L19.1125 3.26251ZM16.7125 20.0625C16.225 19.725 15.5875 19.725 15.1 20.0625L12.9625 21.4875L10.825 20.0625C10.5625 19.9125 10.3 19.8 10 19.8C9.73751 19.8 9.43751 19.875 9.21251 20.0625L7.07501 21.4875L4.93751 20.0625C4.45001 19.725 3.81251 19.725 3.32501 20.0625L2.61251 20.5125V3.26251C2.61251 2.73751 3.02501 2.32501 3.55001 2.32501H16.5625C17.0875 2.32501 17.5 2.73751 17.5 3.26251V20.5125L16.7125 20.0625Z" fill="currentColor"/>
  <path d="M8.57502 4.98749H5.35002C4.90002 4.98749 4.52502 5.36249 4.52502 5.81249C4.52502 6.26249 4.90002 6.63749 5.35002 6.63749H8.57502C9.02502 6.63749 9.40002 6.26249 9.40002 5.81249C9.40002 5.36249 9.02502 4.98749 8.57502 4.98749Z" fill="currentColor"/>
  <path d="M14.4625 4.98749H13.5625C13.1125 4.98749 12.7375 5.36249 12.7375 5.81249C12.7375 6.26249 13.1125 6.63749 13.5625 6.63749H14.4625C14.9125 6.63749 15.2875 6.26249 15.2875 5.81249C15.2875 5.36249 14.9125 4.98749 14.4625 4.98749Z" fill="currentColor"/>
  <path d="M5.35002 11.5875H7.41252C7.86252 11.5875 8.23752 11.2125 8.23752 10.7625C8.23752 10.3125 7.86252 9.9375 7.41252 9.9375H5.35002C4.90002 9.9375 4.52502 10.3125 4.52502 10.7625C4.52502 11.2125 4.86252 11.5875 5.35002 11.5875Z" fill="currentColor"/>
  <path d="M14.4625 9.90002H13.5625C13.1125 9.90002 12.7375 10.275 12.7375 10.725C12.7375 11.175 13.1125 11.55 13.5625 11.55H14.4625C14.9125 11.55 15.2875 11.175 15.2875 10.725C15.2875 10.275 14.9125 9.90002 14.4625 9.90002Z" fill="currentColor"/>
  <path d="M8.57502 14.775H5.35002C4.90002 14.775 4.52502 15.15 4.52502 15.6C4.52502 16.05 4.90002 16.425 5.35002 16.425H8.57502C9.02502 16.425 9.40002 16.05 9.40002 15.6C9.40002 15.15 9.02502 14.775 8.57502 14.775Z" fill="currentColor"/>
  <path d="M14.4625 14.775H13.5625C13.1125 14.775 12.7375 15.15 12.7375 15.6C12.7375 16.05 13.1125 16.425 13.5625 16.425H14.4625C14.9125 16.425 15.2875 16.05 15.2875 15.6C15.2875 15.15 14.9125 14.775 14.4625 14.775Z" fill="currentColor"/>
</svg>
