<svg xmlns="http://www.w3.org/2000/svg" width="15" height="15" viewBox="0 0 24 24" fill="none">
  <path d="M8.17505 0.675049H3.00005C1.72505 0.675049 0.675049 1.72505 0.675049 3.00005V21.0001C0.675049 22.2751 1.72505 23.3251 3.00005 23.3251H8.17505C9.45005 23.3251 10.5 22.2751 10.5 21.0001V3.00005C10.5375 1.72505 9.48755 0.675049 8.17505 0.675049ZM8.85005 21.0001C8.85005 21.3751 8.55005 21.6751 8.17505 21.6751H3.00005C2.62505 21.6751 2.32505 21.3751 2.32505 21.0001V3.00005C2.32505 2.62505 2.62505 2.32505 3.00005 2.32505H8.17505C8.55005 2.32505 8.85005 2.62505 8.85005 3.00005V21.0001Z" fill="currentColor"/>
  <path d="M21 0.675049H15.825C14.55 0.675049 13.5 1.72505 13.5 3.00005V8.17505C13.5 9.45005 14.55 10.5 15.825 10.5H21C22.275 10.5 23.325 9.45005 23.325 8.17505V3.00005C23.325 1.72505 22.275 0.675049 21 0.675049ZM21.675 8.17505C21.675 8.55005 21.375 8.85005 21 8.85005H15.825C15.45 8.85005 15.15 8.55005 15.15 8.17505V3.00005C15.15 2.62505 15.45 2.32505 15.825 2.32505H21C21.375 2.32505 21.675 2.62505 21.675 3.00005V8.17505Z" fill="currentColor"/>
  <path d="M21 13.4625H15.825C14.55 13.4625 13.5 14.5125 13.5 15.7875V21C13.5 22.275 14.55 23.325 15.825 23.325H21C22.275 23.325 23.325 22.275 23.325 21V15.825C23.325 14.5125 22.275 13.4625 21 13.4625ZM21.675 21C21.675 21.375 21.375 21.675 21 21.675H15.825C15.45 21.675 15.15 21.375 15.15 21V15.825C15.15 15.45 15.45 15.15 15.825 15.15H21C21.375 15.15 21.675 15.45 21.675 15.825V21Z" fill="currentColor"/>
</svg>
