<svg width="16" height="18" viewBox="0 0 16 18" fill="currentColor" xmlns="http://www.w3.org/2000/svg">
<g id="Group">
<path id="Vector" d="M12.2469 3.54377V1.94065C12.2469 1.82815 12.3313 1.7719 12.4157 1.7719H14.6375C14.975 1.7719 15.2844 1.49065 15.2844 1.12502C15.2844 0.759399 15.0031 0.478149 14.6375 0.478149H12.4157C11.6282 0.478149 10.9813 1.12502 10.9813 1.91252V3.43127H4.4844C2.43127 3.43127 0.743774 5.11877 0.743774 7.1719V11.7C0.743774 12.6563 1.50315 13.4156 2.4594 13.4156H8.1969V16.875C8.1969 17.2125 8.47815 17.5219 8.84377 17.5219C9.2094 17.5219 9.49065 17.2406 9.49065 16.875V13.4438H12.8657C14.1313 13.4438 15.1438 12.4313 15.1438 11.1656V7.08752C15.1438 6.10315 14.7782 5.20315 14.075 4.52815C13.5407 4.0219 12.9219 3.6844 12.2469 3.54377ZM2.4594 12.1781C2.20627 12.1781 2.0094 11.9813 2.0094 11.7281V7.20002C2.0094 5.85002 3.10627 4.72502 4.4844 4.72502C5.89065 4.72502 7.04378 5.87815 7.04378 7.31252V12.1781H2.4594ZM13.85 11.1656C13.85 11.7281 13.4 12.1781 12.8375 12.1781H8.3094V7.2844C8.3094 6.30002 7.91565 5.40002 7.32503 4.72502H10.9813V7.36877C10.9813 7.70627 11.2625 8.01565 11.6282 8.01565C11.9938 8.01565 12.275 7.7344 12.275 7.36877V4.86565C12.6125 4.97815 12.9219 5.17502 13.175 5.42815C13.625 5.87815 13.8782 6.46877 13.8782 7.11565V11.1656H13.85Z" fill="currentColor"/>
<path id="Vector_2" d="M5.07504 9.5907H3.52816C3.19066 9.5907 2.88129 9.87195 2.88129 10.2376C2.88129 10.6032 3.16254 10.8844 3.52816 10.8844H5.07504C5.41254 10.8844 5.72191 10.6032 5.72191 10.2376C5.72191 9.87195 5.44066 9.5907 5.07504 9.5907Z" fill="currentColor"/>
</g>
</svg>
