<svg xmlns="http://www.w3.org/2000/svg" width="15" height="15" viewBox="0 0 22 24" fill="none">
  <path d="M16.8125 9.3001H16.475C16.1 7.2001 14.45 5.5501 12.3875 5.2126V4.8376C12.3875 4.3876 12.0125 3.9751 11.525 3.9751C11.0375 3.9751 10.6625 4.3501 10.6625 4.8376V5.2126C8.5625 5.5876 6.9125 7.2376 6.575 9.3001H6.2375C5.7875 9.3001 5.375 9.6751 5.375 10.1626C5.375 10.6501 5.75 11.0251 6.2375 11.0251H16.8125C17.2625 11.0251 17.675 10.6501 17.675 10.1626C17.675 9.6751 17.3 9.3001 16.8125 9.3001ZM11.5625 6.8251C13.1 6.8251 14.4125 7.8751 14.7875 9.3001H8.3375C8.7125 7.8751 9.9875 6.8251 11.5625 6.8251Z" fill="currentColor"/>
  <path d="M19.2876 0.675049H3.8001C2.7126 0.675049 1.8126 1.53755 1.8126 2.62505V6.11255H1.5876C1.1376 6.11255 0.725098 6.48755 0.725098 6.97505C0.725098 7.46255 1.1001 7.83755 1.5876 7.83755H1.8501V11.175H1.5876C1.1376 11.175 0.725098 11.55 0.725098 12.0375C0.725098 12.4875 1.1001 12.9 1.5876 12.9H1.8501V16.2375H1.5876C1.1376 16.2375 0.725098 16.6125 0.725098 17.1C0.725098 17.5875 1.1001 17.9625 1.5876 17.9625H1.8501V21.375C1.8501 22.4625 2.7501 23.3625 3.8376 23.3625H19.3626C20.4501 23.3625 21.3501 22.4625 21.3501 21.375V2.62505C21.2751 1.53755 20.3751 0.675049 19.2876 0.675049ZM19.5876 21.375C19.5876 21.525 19.4751 21.675 19.2876 21.675H3.8001C3.6501 21.675 3.5001 21.5625 3.5001 21.375V2.62505C3.5001 2.47505 3.6126 2.32505 3.8001 2.32505H19.3251C19.4751 2.32505 19.6251 2.43755 19.6251 2.62505V21.375H19.5876Z" fill="currentColor"/>
  <path d="M13.7375 13.425H9.35005C8.90005 13.425 8.48755 13.8 8.48755 14.2875C8.48755 14.775 8.86255 15.15 9.35005 15.15H13.7375C14.1875 15.15 14.6 14.775 14.6 14.2875C14.6 13.8 14.225 13.425 13.7375 13.425Z" fill="currentColor"/>
  <path d="M13.7375 16.425H9.35005C8.90005 16.425 8.48755 16.8 8.48755 17.2875C8.48755 17.775 8.86255 18.15 9.35005 18.15H13.7375C14.1875 18.15 14.6 17.775 14.6 17.2875C14.6 16.8 14.225 16.425 13.7375 16.425Z" fill="currentColor"/>
</svg>
