<svg width="18" height="18" viewBox="0 0 18 18" fill="none" xmlns="http://www.w3.org/2000/svg">
<path d="M8.55 9.7312H10.4906C10.8281 9.7312 11.1094 9.44995 11.1094 9.11245C11.1094 8.77495 10.8281 8.4937 10.4906 8.4937H9.92813V8.24058C9.92813 7.90308 9.64687 7.62183 9.30937 7.62183C8.97187 7.62183 8.69063 7.90308 8.69063 8.24058V8.4937H8.57813C7.65 8.4937 6.89062 9.25308 6.89062 10.1812C6.89062 11.1093 7.65 11.8687 8.57813 11.8687H9.47813C9.70313 11.8687 9.9 12.0656 9.9 12.2906C9.9 12.5156 9.70313 12.7125 9.47813 12.7125H7.5375C7.2 12.7125 6.91875 12.9937 6.91875 13.3312C6.91875 13.6687 7.2 13.95 7.5375 13.95H8.71875V14.2031C8.71875 14.5406 9 14.8218 9.3375 14.8218C9.675 14.8218 9.95625 14.5406 9.95625 14.2031V13.8656C10.6594 13.6687 11.1656 13.0218 11.1656 12.2625C11.1656 11.3343 10.4063 10.575 9.47813 10.575H8.57813C8.35313 10.575 8.15625 10.3781 8.15625 10.1531C8.15625 9.92808 8.325 9.7312 8.55 9.7312Z" fill="#00050A"/>
<path d="M15.5531 9.87185C15.1031 8.85935 14.5125 7.87498 13.7531 6.97498C13.0781 6.15935 12.4031 5.5406 11.8969 5.14685L13.3031 2.53123C13.5281 2.13748 13.4437 1.63123 13.1062 1.32185C12.5437 0.787476 11.925 0.506226 11.25 0.506226C10.6594 0.506226 10.125 0.731226 9.73125 0.899976H9.70312C9.53437 0.956226 9.28125 1.06873 9.19687 1.06873C8.35312 0.759351 7.70625 0.562476 7.03125 0.562476C6.13125 0.562476 5.34375 0.928101 4.6125 1.68748C4.275 2.02498 4.21875 2.55935 4.5 2.98123L5.99062 5.2031C5.5125 5.59685 4.86562 6.18748 4.19062 6.97498C3.43125 7.87498 2.84062 8.85935 2.39062 9.87185C1.82812 11.1375 1.54688 12.4875 1.54688 13.8375C1.54688 15.8625 3.20625 17.5219 5.23125 17.5219H12.6562C14.6812 17.5219 16.3406 15.8625 16.3406 13.8375C16.3969 12.4875 16.1156 11.1375 15.5531 9.87185ZM5.70937 2.44685C6.58125 1.63123 7.39687 1.74373 8.83125 2.2781C8.97187 2.33435 9.1125 2.36248 9.25312 2.36248C9.59062 2.36248 9.92812 2.22185 10.2656 2.08123L10.2937 2.0531C10.6031 1.91248 10.9687 1.77185 11.3062 1.77185C11.5875 1.77185 11.8687 1.88435 12.1219 2.10935L10.7156 4.72498H7.2L5.70937 2.44685ZM12.7125 16.2562H5.2875C3.96562 16.2562 2.86875 15.1594 2.86875 13.8375C2.86875 12.6562 3.12187 11.5031 3.6 10.3781C3.99375 9.4781 4.52812 8.60623 5.20312 7.7906C5.93437 6.91873 6.6375 6.29998 7.0875 5.96248H10.9125C11.3625 6.29998 12.0656 6.91873 12.7969 7.7906C13.4719 8.60623 14.0062 9.44998 14.4 10.3781C14.8781 11.5031 15.1312 12.6562 15.1312 13.8375C15.1312 15.1594 14.0625 16.2562 12.7125 16.2562Z" fill="#00050A"/>
</svg>
