<svg width="19" height="19" viewBox="0 0 19 22" fill="currentColor" xmlns="http://www.w3.org/2000/svg">
<g id="Group">
<path id="Vector" d="M9.45 11.8938H11.8219C12.2344 11.8938 12.5781 11.55 12.5781 11.1375C12.5781 10.725 12.2344 10.3813 11.8219 10.3813H11.1344V10.0719C11.1344 9.65942 10.7906 9.31567 10.3781 9.31567C9.96562 9.31567 9.62187 9.65942 9.62187 10.0719V10.3813H9.48438C8.35 10.3813 7.42188 11.3094 7.42188 12.4438C7.42188 13.5782 8.35 14.5063 9.48438 14.5063H10.5844C10.8594 14.5063 11.1 14.7469 11.1 15.0219C11.1 15.2969 10.8594 15.5375 10.5844 15.5375H8.2125C7.8 15.5375 7.45625 15.8813 7.45625 16.2938C7.45625 16.7063 7.8 17.05 8.2125 17.05H9.65625V17.3594C9.65625 17.7719 10 18.1157 10.4125 18.1157C10.825 18.1157 11.1688 17.7719 11.1688 17.3594V16.9469C12.0281 16.7063 12.6469 15.9157 12.6469 14.9875C12.6469 13.8532 11.7188 12.925 10.5844 12.925H9.48438C9.20938 12.925 8.96875 12.6844 8.96875 12.4094C8.96875 12.1344 9.175 11.8938 9.45 11.8938Z" fill="currentColor"/>
<path id="Vector_2" d="M18.0094 12.0656C17.4594 10.8281 16.7375 9.62502 15.8094 8.52502C14.9844 7.52815 14.1594 6.7719 13.5406 6.29065L15.2594 3.09377C15.5344 2.61252 15.4312 1.99377 15.0187 1.61565C14.3312 0.962524 13.575 0.618774 12.75 0.618774C12.0281 0.618774 11.375 0.893774 10.8937 1.10002H10.8594C10.6531 1.16877 10.3437 1.30627 10.2406 1.30627C9.20937 0.928149 8.41875 0.687524 7.59375 0.687524C6.49375 0.687524 5.53125 1.1344 4.6375 2.06252C4.225 2.47502 4.15625 3.12815 4.5 3.64377L6.32187 6.3594C5.7375 6.84065 4.94687 7.56252 4.12187 8.52502C3.19375 9.62502 2.47187 10.8281 1.92187 12.0656C1.23437 13.6125 0.890625 15.2625 0.890625 16.9125C0.890625 19.3875 2.91875 21.4156 5.39375 21.4156H14.4687C16.9437 21.4156 18.9719 19.3875 18.9719 16.9125C19.0406 15.2625 18.6969 13.6125 18.0094 12.0656ZM5.97812 2.99065C7.04375 1.99377 8.04062 2.13127 9.79375 2.7844C9.96562 2.85315 10.1375 2.88752 10.3094 2.88752C10.7219 2.88752 11.1344 2.71565 11.5469 2.54377L11.5812 2.5094C11.9594 2.33752 12.4062 2.16565 12.8187 2.16565C13.1625 2.16565 13.5062 2.30315 13.8156 2.57815L12.0969 5.77502H7.8L5.97812 2.99065ZM14.5375 19.8688H5.4625C3.84687 19.8688 2.50625 18.5282 2.50625 16.9125C2.50625 15.4688 2.81562 14.0594 3.4 12.6844C3.88125 11.5844 4.53437 10.5188 5.35937 9.5219C6.25312 8.45627 7.1125 7.70003 7.6625 7.28753H12.3375C12.8875 7.70003 13.7469 8.45627 14.6406 9.5219C15.4656 10.5188 16.1187 11.55 16.6 12.6844C17.1844 14.0594 17.4937 15.4688 17.4937 16.9125C17.4937 18.5282 16.1875 19.8688 14.5375 19.8688Z" fill="currentColor"/>
</g>
</svg>
