<svg width="19" height="18" viewBox="0 0 19 18" fill="none" xmlns="http://www.w3.org/2000/svg">
<g clip-path="url(#clip0_44_9729)">
<path d="M3.01923 11.25C4.26187 11.25 5.26923 10.2426 5.26923 9C5.26923 7.75736 4.26187 6.75 3.01923 6.75C1.77659 6.75 0.769226 7.75736 0.769226 9C0.769226 10.2426 1.77659 11.25 3.01923 11.25Z" fill="#00050A"/>
<path d="M9.76923 11.25C11.0119 11.25 12.0192 10.2426 12.0192 9C12.0192 7.75736 11.0119 6.75 9.76923 6.75C8.52659 6.75 7.51923 7.75736 7.51923 9C7.51923 10.2426 8.52659 11.25 9.76923 11.25Z" fill="#00050A"/>
<path d="M16.5192 11.25C17.7619 11.25 18.7692 10.2426 18.7692 9C18.7692 7.75736 17.7619 6.75 16.5192 6.75C15.2766 6.75 14.2692 7.75736 14.2692 9C14.2692 10.2426 15.2766 11.25 16.5192 11.25Z" fill="#00050A"/>
</g>
<defs>
<clipPath id="clip0_44_9729">
<rect width="18" height="18" fill="white" transform="translate(0.769226)"/>
</clipPath>
</defs>
</svg>
