<svg width="19" height="18" viewBox="0 0 19 18" fill="none" xmlns="http://www.w3.org/2000/svg">
<path d="M15.1208 0.506226H4.54583C3.58958 0.506226 2.80208 1.29373 2.80208 2.24998V15.75C2.80208 16.7062 3.58958 17.5219 4.57395 17.5219H15.149C16.1052 17.5219 16.9208 16.7344 16.9208 15.75V2.24998C16.8646 1.29373 16.0771 0.506226 15.1208 0.506226ZM15.599 15.75C15.599 16.0312 15.374 16.2562 15.0927 16.2562H4.54583C4.26458 16.2562 4.03958 16.0312 4.03958 15.75V2.24998C4.03958 1.96873 4.26458 1.74373 4.54583 1.74373H15.1208C15.4021 1.74373 15.6271 1.96873 15.6271 2.24998V15.75H15.599Z" fill="#00050A"/>
<path d="M13.6302 2.6156H10.5646C10.0583 2.6156 9.63645 3.03748 9.63645 3.54373V7.25623C9.63645 7.76248 10.0583 8.18435 10.5646 8.18435H13.6302C14.1365 8.18435 14.5583 7.76248 14.5583 7.25623V3.5156C14.5302 3.03748 14.1365 2.6156 13.6302 2.6156ZM13.2646 6.8906H10.9021V3.88123H13.2646V6.8906Z" fill="#00050A"/>
<path d="M5.81145 4.35938H7.86458C8.20208 4.35938 8.51145 4.07812 8.51145 3.7125C8.51145 3.34687 8.2302 3.09375 7.86458 3.09375H5.78333C5.44583 3.09375 5.13645 3.375 5.13645 3.74063C5.13645 4.10625 5.44583 4.35938 5.81145 4.35938Z" fill="#00050A"/>
<path d="M5.81145 7.9312H7.86458C8.20208 7.9312 8.51145 7.64995 8.51145 7.28433C8.51145 6.9187 8.2302 6.63745 7.86458 6.63745H5.78333C5.44583 6.63745 5.13645 6.9187 5.13645 7.28433C5.13645 7.64995 5.44583 7.9312 5.81145 7.9312Z" fill="#00050A"/>
<path d="M13.9115 10.2375H5.81146C5.47396 10.2375 5.16458 10.5187 5.16458 10.8844C5.16458 11.25 5.44583 11.5312 5.81146 11.5312H13.9115C14.249 11.5312 14.5583 11.25 14.5583 10.8844C14.5583 10.5187 14.249 10.2375 13.9115 10.2375Z" fill="#00050A"/>
<path d="M13.9115 13.8093H5.81146C5.47396 13.8093 5.16458 14.0906 5.16458 14.4562C5.16458 14.8218 5.44583 15.1031 5.81146 15.1031H13.9115C14.249 15.1031 14.5583 14.8218 14.5583 14.4562C14.5583 14.0906 14.249 13.8093 13.9115 13.8093Z" fill="#00050A"/>
</svg>
