<svg width="19" height="18" viewBox="0 0 19 18" fill="none" xmlns="http://www.w3.org/2000/svg">
<g clip-path="url(#clip0_131_4695)">
<path d="M17.2386 8.38127H10.0105V1.12502C10.0105 0.787524 9.72924 0.478149 9.36361 0.478149C9.02611 0.478149 8.71674 0.759399 8.71674 1.12502V8.38127H1.48861C1.15111 8.38127 0.841736 8.66252 0.841736 9.02815C0.841736 9.36565 1.12299 9.67502 1.48861 9.67502H8.74486V16.875C8.74486 17.2125 9.02611 17.5219 9.39174 17.5219C9.72924 17.5219 10.0386 17.2406 10.0386 16.875V9.6469H17.2386C17.5761 9.6469 17.8855 9.36565 17.8855 9.00002C17.8855 8.66252 17.5761 8.38127 17.2386 8.38127Z" fill="#00050A"/>
</g>
<defs>
<clipPath id="clip0_131_4695">
<rect width="18" height="18" fill="white" transform="translate(0.363617)"/>
</clipPath>
</defs>
</svg>
