<svg width="19" height="18" viewBox="0 0 19 18" fill="none" xmlns="http://www.w3.org/2000/svg">
<path d="M9.54543 10.6594C9.88293 10.6594 10.1923 10.3781 10.1923 10.0125V1.40627C10.1923 1.06877 9.91106 0.759399 9.54543 0.759399C9.20793 0.759399 8.89856 1.04065 8.89856 1.40627V10.0406C8.92668 10.3781 9.20793 10.6594 9.54543 10.6594Z" fill="#00050A"/>
<path d="M12.6673 2.72816C12.3579 2.58754 11.9642 2.72816 11.8235 3.03754C11.6829 3.34691 11.8235 3.74066 12.1329 3.88129C14.3829 4.89379 15.8454 7.17191 15.8454 9.64691C15.8454 13.1344 13.0048 15.975 9.51728 15.975C6.02979 15.975 3.21729 13.1344 3.21729 9.64691C3.21729 7.17191 4.67979 4.92191 6.92979 3.88129C7.23916 3.74066 7.37979 3.37504 7.23916 3.03754C7.09854 2.72816 6.73291 2.58754 6.39541 2.72816C3.72353 3.96566 1.95166 6.66566 1.95166 9.64691C1.95166 13.8375 5.35479 17.2407 9.54541 17.2407C13.736 17.2407 17.1392 13.8375 17.1392 9.64691C17.1392 6.66566 15.3673 3.96566 12.6673 2.72816Z" fill="#00050A"/>
</svg>
