<svg width="18" height="18" viewBox="0 0 18 18" fill="none" xmlns="http://www.w3.org/2000/svg">
<path d="M15.3562 4.07815V1.96877C15.3562 1.15315 14.6812 0.478149 13.8656 0.478149H4.10621C3.29059 0.478149 2.61559 1.15315 2.61559 1.96877V4.07815C1.82809 4.10627 1.18121 4.75315 1.18121 5.54065V9.59065C1.18121 10.3781 1.82809 11.025 2.61559 11.0531V16.0313C2.61559 16.8469 3.29059 17.5219 4.10621 17.5219H13.8937C14.7093 17.5219 15.3843 16.8469 15.3843 16.0313V11.0531C16.1718 11.025 16.8187 10.3781 16.8187 9.59065V5.54065C16.7906 4.75315 16.1437 4.10627 15.3562 4.07815ZM3.90934 1.96877C3.90934 1.85627 3.99371 1.74377 4.13434 1.74377H13.9218C14.0343 1.74377 14.1468 1.82815 14.1468 1.96877V4.07815H3.90934V1.96877ZM14.0906 16.0313C14.0906 16.1438 14.0062 16.2563 13.8656 16.2563H4.10621C3.99371 16.2563 3.88121 16.1719 3.88121 16.0313V11.0531H14.0906V16.0313ZM15.525 9.59065C15.525 9.70315 15.4406 9.81565 15.3 9.81565H2.67184C2.55934 9.81565 2.44684 9.73127 2.44684 9.59065V5.54065C2.44684 5.42815 2.53121 5.31565 2.67184 5.31565H15.3C15.4125 5.31565 15.525 5.40002 15.525 5.54065V9.59065Z" fill="#00050A"/>
<path d="M6.89059 13.2188H11.1093C11.4468 13.2188 11.7562 12.9375 11.7562 12.5719C11.7562 12.2063 11.475 11.925 11.1093 11.925H6.89059C6.55309 11.925 6.24371 12.2063 6.24371 12.5719C6.24371 12.9375 6.55309 13.2188 6.89059 13.2188Z" fill="#00050A"/>
<path d="M14.0625 6.52502H11.9531C11.6156 6.52502 11.3062 6.80627 11.3062 7.1719C11.3062 7.53752 11.5875 7.81877 11.9531 7.81877H14.0625C14.4 7.81877 14.7093 7.53752 14.7093 7.1719C14.7093 6.80627 14.4281 6.52502 14.0625 6.52502Z" fill="#00050A"/>
<path d="M6.89059 15.3562H11.1093C11.4468 15.3562 11.7562 15.075 11.7562 14.7094C11.7562 14.3437 11.475 14.0625 11.1093 14.0625H6.89059C6.55309 14.0625 6.24371 14.3437 6.24371 14.7094C6.24371 15.075 6.55309 15.3562 6.89059 15.3562Z" fill="#00050A"/>
</svg>
