<svg width="19" height="18" viewBox="0 0 19 18" fill="none" xmlns="http://www.w3.org/2000/svg">
<g clip-path="url(#clip0_44_9715)">
<path d="M16.3965 11.024C16.4648 10.6923 16.2679 10.3513 15.9221 10.2587C15.5904 10.1904 15.2494 10.3872 15.1567 10.733C14.7497 12.5593 13.609 14.1273 12.0014 15.0554C8.81068 16.8976 4.73822 15.8064 2.89603 12.6156C1.05384 9.42483 2.14506 5.35236 5.33582 3.51018C7.69845 2.14611 10.6228 2.3738 12.7512 4.03532L11.3393 4.23348C10.9767 4.28044 10.7444 4.60939 10.8017 4.93357C10.8195 5.0207 10.8373 5.10784 10.8655 5.15655C10.992 5.37576 11.2263 5.50031 11.5018 5.47117L14.4269 5.08139C14.7895 5.03442 15.0218 4.70547 14.9645 4.38129L14.5747 1.45617C14.5278 1.09357 14.1988 0.861306 13.8746 0.918566C13.512 0.965531 13.2798 1.29449 13.337 1.61866L13.4968 3.02033C10.9728 1.06754 7.50406 0.796926 4.67865 2.42818C0.903322 4.60786 -0.418138 9.46278 1.77561 13.2625C3.96936 17.0622 8.81021 18.3593 12.6099 16.1655C14.5341 15.0546 15.9212 13.182 16.3965 11.024Z" fill="#00050A"/>
</g>
<defs>
<clipPath id="clip0_44_9715">
<rect width="18" height="18" fill="white" transform="translate(0.15387)"/>
</clipPath>
</defs>
</svg>
