<svg width="19" height="18" viewBox="0 0 19 18" fill="none" xmlns="http://www.w3.org/2000/svg">
<g clip-path="url(#clip0_44_9719)">
<path fill-rule="evenodd" clip-rule="evenodd" d="M8.71155 3C8.71155 3.41421 8.37576 3.75 7.96155 3.75L2.71155 3.75C2.29733 3.75 1.96155 3.41421 1.96155 3C1.96155 2.58579 2.29733 2.25 2.71155 2.25L7.96155 2.25C8.37576 2.25 8.71155 2.58579 8.71155 3Z" fill="#00050A"/>
<path fill-rule="evenodd" clip-rule="evenodd" d="M16.9615 3C16.9615 3.41421 16.6258 3.75 16.2115 3.75L10.9615 3.75C10.5473 3.75 10.2115 3.41421 10.2115 3C10.2115 2.58579 10.5473 2.25 10.9615 2.25L16.2115 2.25C16.6258 2.25 16.9615 2.58579 16.9615 3Z" fill="#00050A"/>
<path fill-rule="evenodd" clip-rule="evenodd" d="M10.2115 9C10.2115 9.41421 9.87576 9.75 9.46155 9.75L2.71155 9.75C2.29733 9.75 1.96155 9.41421 1.96155 9C1.96155 8.58579 2.29733 8.25 2.71155 8.25L9.46155 8.25C9.87576 8.25 10.2115 8.58579 10.2115 9Z" fill="#00050A"/>
<path fill-rule="evenodd" clip-rule="evenodd" d="M16.9615 9C16.9615 9.41421 16.6258 9.75 16.2115 9.75L12.4615 9.75C12.0473 9.75 11.7115 9.41421 11.7115 9C11.7115 8.58579 12.0473 8.25 12.4615 8.25L16.2115 8.25C16.6258 8.25 16.9615 8.58579 16.9615 9Z" fill="#00050A"/>
<path fill-rule="evenodd" clip-rule="evenodd" d="M7.21155 15C7.21155 15.4142 6.87576 15.75 6.46155 15.75L2.71155 15.75C2.29733 15.75 1.96155 15.4142 1.96155 15C1.96155 14.5858 2.29733 14.25 2.71155 14.25L6.46155 14.25C6.87576 14.25 7.21155 14.5858 7.21155 15Z" fill="#00050A"/>
<path fill-rule="evenodd" clip-rule="evenodd" d="M16.9615 15C16.9615 15.4142 16.6258 15.75 16.2115 15.75L9.46155 15.75C9.04733 15.75 8.71155 15.4142 8.71155 15C8.71155 14.5858 9.04733 14.25 9.46155 14.25L16.2115 14.25C16.6258 14.25 16.9615 14.5858 16.9615 15Z" fill="#00050A"/>
<path fill-rule="evenodd" clip-rule="evenodd" d="M7.96155 -3.27835e-08C8.37576 -1.46777e-08 8.71155 0.335786 8.71155 0.75L8.71155 5.25C8.71155 5.66421 8.37576 6 7.96155 6C7.54733 6 7.21155 5.66421 7.21155 5.25L7.21155 0.75C7.21155 0.335786 7.54733 -5.08894e-08 7.96155 -3.27835e-08Z" fill="#00050A"/>
<path fill-rule="evenodd" clip-rule="evenodd" d="M12.4615 6C12.8758 6 13.2115 6.33579 13.2115 6.75L13.2115 11.25C13.2115 11.6642 12.8758 12 12.4615 12C12.0473 12 11.7115 11.6642 11.7115 11.25L11.7115 6.75C11.7115 6.33579 12.0473 6 12.4615 6Z" fill="#00050A"/>
<path fill-rule="evenodd" clip-rule="evenodd" d="M6.46155 12C6.87576 12 7.21155 12.3358 7.21155 12.75L7.21155 17.25C7.21155 17.6642 6.87576 18 6.46155 18C6.04733 18 5.71155 17.6642 5.71155 17.25L5.71155 12.75C5.71155 12.3358 6.04733 12 6.46155 12Z" fill="#00050A"/>
</g>
<defs>
<clipPath id="clip0_44_9719">
<rect width="18" height="18" fill="white" transform="translate(18.4615) rotate(90)"/>
</clipPath>
</defs>
</svg>
