<svg xmlns="http://www.w3.org/2000/svg" width="15" height="15" viewBox="0 0 20 24" fill="none">
  <path d="M19.7875 1.20005C19.6375 0.750052 19.15 0.525052 18.7 0.712552L15.9625 1.72505C15.625 1.83755 15.4 2.17505 15.4 2.51255V12.8626C15.4 13.5001 14.875 14.0251 14.2375 14.0251H3.02502C2.38752 14.0251 1.86252 13.5001 1.86252 12.8626V7.46255C1.86252 7.01255 1.48752 6.63755 1.03752 6.63755C0.587524 6.63755 0.212524 7.01255 0.212524 7.46255V12.8626C0.212524 14.4376 1.48752 15.7126 3.06252 15.7126H14.275C14.6875 15.7126 15.0625 15.6376 15.4375 15.4501V17.0251C15.4375 17.6626 14.9125 18.1876 14.275 18.1876H3.66252C2.23752 18.1876 1.07502 19.3501 1.07502 20.7751C1.07502 22.2001 2.23752 23.3626 3.66252 23.3626C5.08752 23.3626 6.25002 22.2001 6.25002 20.7751C6.25002 20.4751 6.17502 20.1376 6.10002 19.8751H9.85002C9.73752 20.1751 9.70002 20.4751 9.70002 20.7751C9.70002 22.2001 10.8625 23.3626 12.2875 23.3626C13.7125 23.3626 14.875 22.2001 14.875 20.7751C14.875 20.4376 14.8 20.1376 14.6875 19.8376C16.0375 19.6126 17.0875 18.4501 17.0875 17.0251V3.11255L19.3 2.32505C19.7125 2.13755 19.9375 1.65005 19.7875 1.20005ZM4.56252 20.7376C4.56252 21.2251 4.15002 21.6376 3.66252 21.6376C3.17502 21.6376 2.76252 21.2251 2.76252 20.7376C2.76252 20.2501 3.17502 19.8376 3.66252 19.8376C4.15002 19.8376 4.56252 20.2501 4.56252 20.7376ZM12.25 21.6376C11.7625 21.6376 11.35 21.2251 11.35 20.7376C11.35 20.2501 11.7625 19.8376 12.25 19.8376C12.7375 19.8376 13.15 20.2501 13.15 20.7376C13.15 21.2251 12.775 21.6376 12.25 21.6376Z" fill="currentColor"/>
  <path d="M7.71255 11.4C7.86255 11.55 8.08755 11.6625 8.31255 11.6625C8.53755 11.6625 8.76255 11.5875 8.91255 11.4L10.9 9.45003C11.2375 9.11253 11.2375 8.58752 10.9 8.25002C10.5625 7.91252 10.0375 7.91252 9.70005 8.25002L9.17505 8.77502V4.16252C9.17505 3.71252 8.80005 3.33752 8.35005 3.33752C7.90005 3.33752 7.52505 3.71252 7.52505 4.16252V8.77502L6.92505 8.25002C6.58755 7.91252 6.06255 7.91252 5.72505 8.25002C5.38755 8.58752 5.38755 9.11253 5.72505 9.45003L7.71255 11.4Z" fill="currentColor"/>
</svg>
