<svg width="19" height="18" viewBox="0 0 19 18" fill="none" xmlns="http://www.w3.org/2000/svg">
<path d="M16.1958 15.1594L15.0427 5.2594C14.9302 4.19065 14.0021 3.37502 12.9333 3.37502H12.3146C12.2865 1.7719 10.9646 0.478149 9.33333 0.478149C7.70208 0.478149 6.38021 1.7719 6.32396 3.37502H5.70521C4.63646 3.37502 3.73646 4.19065 3.59583 5.2594L2.47083 15.1594C2.38646 15.75 2.58333 16.3406 2.97708 16.7906C3.37083 17.2407 3.96146 17.4938 4.55208 17.4938H14.0865C14.6771 17.4938 15.2677 17.2407 15.6615 16.7906C16.0833 16.3406 16.2802 15.75 16.1958 15.1594ZM9.33333 1.74377C10.2615 1.74377 11.0208 2.47502 11.0771 3.37502H7.58958C7.64583 2.47502 8.40521 1.74377 9.33333 1.74377ZM14.7333 15.9469C14.5646 16.1438 14.3396 16.2281 14.0865 16.2281H4.58021C4.32708 16.2281 4.10208 16.1156 3.93333 15.9469C3.76458 15.75 3.70833 15.525 3.73646 15.2719L4.88958 5.3719C4.94583 4.95002 5.31146 4.61252 5.73333 4.61252H7.02708H11.6958H12.9896C13.4115 4.61252 13.7771 4.95002 13.8333 5.3719L14.9865 15.2719C14.9583 15.525 14.9021 15.7781 14.7333 15.9469Z" fill="#00050A"/>
<path d="M10.4865 8.55001L8.65833 10.3781L8.20833 9.92814C7.9552 9.67501 7.56145 9.67501 7.30833 9.92814C7.0552 10.1813 7.0552 10.575 7.30833 10.8281L8.20833 11.7281C8.32083 11.8406 8.48958 11.925 8.65833 11.925C8.82708 11.925 8.99583 11.8688 9.10833 11.7281L11.3865 9.45001C11.6396 9.19689 11.6396 8.80314 11.3865 8.55001C11.1333 8.29689 10.7115 8.29689 10.4865 8.55001Z" fill="#00050A"/>
</svg>
