<svg width="19" height="18" viewBox="0 0 19 18" fill="none" xmlns="http://www.w3.org/2000/svg">
<g clip-path="url(#clip0_131_4693)">
<path d="M6.83892 13.725L5.06704 15.4125V1.12502C5.06704 0.787524 4.78579 0.478149 4.42016 0.478149C4.05454 0.478149 3.77329 0.759399 3.77329 1.12502V15.4125L2.00141 13.725C1.74829 13.4719 1.35454 13.5 1.10141 13.7531C0.84829 14.0063 0.876415 14.4 1.12954 14.6531L3.97016 17.3531C4.08266 17.4656 4.25141 17.5219 4.39204 17.5219C4.53266 17.5219 4.70141 17.4656 4.81391 17.3531L7.71079 14.625C7.96391 14.3719 7.96391 13.9781 7.73891 13.725C7.51392 13.4719 7.09204 13.4719 6.83892 13.725Z" fill="#00050A"/>
<path d="M17.7514 3.37504L14.9108 0.675037C14.6577 0.450037 14.292 0.450037 14.0389 0.675037L11.1983 3.37504C10.9452 3.62816 10.9452 4.02191 11.1702 4.27504C11.2827 4.41566 11.4514 4.47191 11.6202 4.47191C11.7889 4.47191 11.9295 4.41566 12.042 4.30316L13.8139 2.61566V16.875C13.8139 17.2125 14.0952 17.5219 14.4608 17.5219C14.8264 17.5219 15.1077 17.2407 15.1077 16.875V2.58754L16.8795 4.27504C17.1327 4.52816 17.5264 4.50004 17.7795 4.24691C18.0327 3.99379 18.0045 3.60004 17.7514 3.37504Z" fill="#00050A"/>
</g>
<defs>
<clipPath id="clip0_131_4693">
<rect width="18" height="18" fill="white" transform="translate(0.454544)"/>
</clipPath>
</defs>
</svg>
