<svg width="16" height="16" viewBox="0 0 14 16" fill="none" xmlns="http://www.w3.org/2000/svg">
<g id="Group">
<path id="Vector" d="M7.575 3.00005V1.57505H8.925C9.225 1.57505 9.5 1.32505 9.5 1.00005C9.5 0.675049 9.25 0.425049 8.925 0.425049H5.1C4.8 0.425049 4.525 0.675049 4.525 1.00005C4.525 1.32505 4.775 1.57505 5.1 1.57505H6.45V3.00005C3.225 3.30005 0.699997 6.00005 0.699997 9.27505C0.699997 12.75 3.525 15.575 7 15.575C10.475 15.575 13.3 12.75 13.3 9.27505C13.3 6.00005 10.775 3.30005 7.575 3.00005ZM7 14.45C4.15 14.45 1.825 12.125 1.825 9.27505C1.825 6.42505 4.15 4.10005 7 4.10005C9.85 4.10005 12.175 6.42505 12.175 9.27505C12.175 12.125 9.85 14.45 7 14.45Z" fill="#6D7177"/>
<path id="Vector_2" d="M10.175 8.70002H7.57499V6.10002C7.57499 5.80002 7.32499 5.52502 6.99999 5.52502C6.69999 5.52502 6.42499 5.77502 6.42499 6.10002V8.72503H5.72499C5.42499 8.72503 5.14999 8.97502 5.14999 9.30002C5.14999 9.62502 5.39999 9.87502 5.72499 9.87502H6.42499V10.575C6.42499 10.875 6.67499 11.15 6.99999 11.15C7.29999 11.15 7.57499 10.9 7.57499 10.575V9.87502H10.2C10.5 9.87502 10.775 9.62502 10.775 9.30002C10.775 8.97502 10.5 8.70002 10.175 8.70002Z" fill="#6D7177"/>
</g>
</svg>
