<svg width="19" height="18" viewBox="0 0 19 18" fill="none" xmlns="http://www.w3.org/2000/svg">
<path d="M14.2531 2.47502H12.0875V1.9969C12.0875 1.15315 11.4125 0.478149 10.5687 0.478149H8.40312C7.55937 0.478149 6.88437 1.15315 6.88437 1.9969V2.47502H4.71874C3.90312 2.47502 3.22812 3.15002 3.22812 3.96565V4.8094C3.22812 5.42815 3.59374 5.9344 4.12812 6.1594L4.57812 15.8907C4.63437 16.8188 5.36562 17.5219 6.29374 17.5219H12.6219C13.55 17.5219 14.3094 16.7907 14.3375 15.8907L14.8437 6.13127C15.3781 5.90627 15.7437 5.3719 15.7437 4.78127V3.93752C15.7437 3.15002 15.0687 2.47502 14.2531 2.47502ZM8.17812 1.9969C8.17812 1.85627 8.29062 1.74377 8.43124 1.74377H10.5969C10.7375 1.74377 10.85 1.85627 10.85 1.9969V2.47502H8.20624V1.9969H8.17812ZM4.52187 3.96565C4.52187 3.85315 4.60624 3.74065 4.74687 3.74065H14.2531C14.3656 3.74065 14.4781 3.82502 14.4781 3.96565V4.8094C14.4781 4.9219 14.3937 5.0344 14.2531 5.0344H4.74687C4.63437 5.0344 4.52187 4.95003 4.52187 4.8094V3.96565ZM12.65 16.2563H6.34999C6.09687 16.2563 5.89999 16.0594 5.89999 15.8344L5.44999 6.30002H13.5781L13.1281 15.8344C13.1 16.0594 12.9031 16.2563 12.65 16.2563Z" fill="#00050A"/>
<path d="M9.49999 8.74689C9.16249 8.74689 8.85312 9.02814 8.85312 9.39376V13.7531C8.85312 14.0906 9.13437 14.4 9.49999 14.4C9.83749 14.4 10.1469 14.1188 10.1469 13.7531V9.36564C10.1469 9.02814 9.83749 8.74689 9.49999 8.74689Z" fill="#00050A"/>
<path d="M12.1156 9.2813C11.7781 9.25317 11.4687 9.53442 11.4406 9.87192L11.2719 13.1063C11.2437 13.4438 11.525 13.7532 11.8625 13.7813H11.8906C12.2281 13.7813 12.5094 13.5282 12.5094 13.1907L12.6781 9.9563C12.7344 9.59068 12.4531 9.30942 12.1156 9.2813Z" fill="#00050A"/>
<path d="M6.85624 9.2813C6.51874 9.30942 6.23749 9.59068 6.26561 9.9563L6.46249 13.2188C6.49061 13.5563 6.77186 13.8094 7.08124 13.8094H7.10936C7.44686 13.7813 7.72811 13.5001 7.69999 13.1344L7.53124 9.87192C7.50311 9.53442 7.19374 9.25317 6.85624 9.2813Z" fill="#00050A"/>
</svg>
