<svg xmlns="http://www.w3.org/2000/svg" width="15" height="15" viewBox="0 0 24 20" fill="none">
  <path d="M7.83748 8.94995C10.1625 8.94995 12.075 7.11245 12.075 4.82495C12.075 2.53745 10.1625 0.699951 7.83748 0.699951C5.51248 0.699951 3.59998 2.53745 3.59998 4.82495C3.59998 7.11245 5.51248 8.94995 7.83748 8.94995ZM7.83748 2.42495C9.22498 2.42495 10.3875 3.51245 10.3875 4.86245C10.3875 6.21245 9.26248 7.29995 7.83748 7.29995C6.41248 7.29995 5.28748 6.21245 5.28748 4.86245C5.28748 3.51245 6.44998 2.42495 7.83748 2.42495Z" fill="currentColor"/>
  <path d="M17.25 10.75C19.275 10.75 20.8875 9.175 20.8875 7.1875C20.8875 5.2 19.2375 3.625 17.25 3.625C15.2625 3.625 13.6125 5.2 13.6125 7.1875C13.6125 9.175 15.2625 10.75 17.25 10.75ZM17.25 5.35C18.3375 5.35 19.2 6.175 19.2 7.225C19.2 8.275 18.3375 9.1 17.25 9.1C16.1625 9.1 15.3 8.275 15.3 7.225C15.3 6.175 16.1625 5.35 17.25 5.35Z" fill="currentColor"/>
  <path d="M17.4375 11.1249H17.1C15.975 11.1249 14.8875 11.4624 13.95 12.0249C12.9375 10.6749 11.325 9.7749 9.52499 9.7749H6.18749C3.11249 9.8124 0.674988 12.2499 0.674988 15.2874V17.9874C0.674988 18.6999 1.23749 19.2624 1.94999 19.2624H22.0875C22.8 19.2624 23.4 18.6624 23.4 17.9499V17.0499C23.3625 13.7874 20.7 11.1249 17.4375 11.1249ZM2.36249 17.5749V15.2874C2.36249 13.1874 4.08749 11.4624 6.18749 11.4624H9.52499C11.625 11.4624 13.35 13.1874 13.35 15.2874V17.5749H2.36249ZM21.675 17.5749H15V15.2874C15 14.6874 14.8875 14.0874 14.7 13.5249C15.375 13.0374 16.2 12.8124 17.0625 12.8124H17.4C19.725 12.8124 21.6375 14.7249 21.6375 17.0499V17.5749H21.675Z" fill="currentColor"/>
</svg>
