<svg width="18" height="18" viewBox="0 0 18 18" fill="none" xmlns="http://www.w3.org/2000/svg">
<g clip-path="url(#clip0_595_19548)">
<path d="M17.4938 7.73359V6.43984C17.4938 5.79297 17.1563 5.20234 16.6219 4.89297L9.92813 0.842969C9.36563 0.505469 8.63438 0.505469 8.07188 0.842969L1.37813 4.86484C0.843756 5.20234 0.506256 5.79297 0.506256 6.41172V15.5805C0.506256 16.593 1.32188 17.3805 2.30626 17.3805H15.6938C16.7063 17.3805 17.5219 16.5648 17.5219 15.5805L17.4938 7.73359C17.5219 7.73359 17.4938 7.73359 17.4938 7.73359C17.5219 7.73359 17.4938 7.73359 17.4938 7.73359ZM2.02501 5.96172L8.71876 1.93984C8.80313 1.88359 8.91563 1.85547 9.00001 1.85547C9.08438 1.85547 9.19688 1.88359 9.28126 1.93984L15.975 5.96172C16.1438 6.07422 16.2281 6.24297 16.2281 6.43984V7.11484H1.77188V6.43984C1.77188 6.21484 1.85626 6.04609 2.02501 5.96172ZM6.94688 12.993H11.0531V14.2023H6.94688V12.993ZM11.0531 11.7273H6.94688V10.8273C6.94688 10.7148 7.03126 10.6023 7.17188 10.6023H10.8563C10.9688 10.6023 11.0813 10.6867 11.0813 10.8273V11.7273H11.0531ZM6.94688 16.143V15.468H11.0531V16.143H6.94688ZM15.6938 16.143H12.3188V10.7992C12.3188 9.98359 11.6438 9.30859 10.8281 9.30859H7.17188C6.35626 9.30859 5.68126 9.98359 5.68126 10.7992V16.143H2.30626C1.99688 16.143 1.77188 15.8898 1.77188 15.6086V8.35234H16.2563V15.5805C16.2281 15.8898 16.0031 16.143 15.6938 16.143Z" fill="#6D7177"/>
<path d="M7.39687 6.01836H10.575C10.9125 6.01836 11.2219 5.73711 11.2219 5.37148C11.2219 5.00586 10.9406 4.72461 10.575 4.72461H7.39687C7.05937 4.72461 6.75 5.00586 6.75 5.37148C6.75 5.73711 7.05937 6.01836 7.39687 6.01836Z" fill="#6D7177"/>
</g>
<defs>
<clipPath id="clip0_595_19548">
<rect width="18" height="18" fill="white"/>
</clipPath>
</defs>
</svg>
