<svg width="19" height="18" viewBox="0 0 19 18" fill="none" xmlns="http://www.w3.org/2000/svg">
<g clip-path="url(#clip0_44_9743)">
<path d="M18.1604 7.73439V6.44064C18.1604 5.79376 17.8229 5.20314 17.2885 4.89376L10.5948 0.843762C10.0323 0.506262 9.30104 0.506262 8.73854 0.843762L2.04479 4.86564C1.51041 5.20314 1.17291 5.79376 1.17291 6.41251V15.5813C1.17291 16.5938 1.98854 17.3813 2.97291 17.3813H16.3604C17.3729 17.3813 18.1885 16.5656 18.1885 15.5813L18.1604 7.73439C18.1885 7.73439 18.1604 7.73439 18.1604 7.73439C18.1885 7.73439 18.1604 7.73439 18.1604 7.73439ZM2.69166 5.96251L9.38541 1.94064C9.46979 1.88439 9.58229 1.85626 9.66666 1.85626C9.75104 1.85626 9.86354 1.88439 9.94791 1.94064L16.6417 5.96251C16.8104 6.07501 16.8948 6.24376 16.8948 6.44064V7.11564H2.43854V6.44064C2.43854 6.21564 2.52291 6.04689 2.69166 5.96251ZM7.61354 12.9938H11.7198V14.2031H7.61354V12.9938ZM11.7198 11.7281H7.61354V10.8281C7.61354 10.7156 7.69791 10.6031 7.83854 10.6031H11.5229C11.6354 10.6031 11.7479 10.6875 11.7479 10.8281V11.7281H11.7198ZM7.61354 16.1438V15.4688H11.7198V16.1438H7.61354ZM16.3604 16.1438H12.9854V10.8C12.9854 9.98439 12.3104 9.30939 11.4948 9.30939H7.83854C7.02291 9.30939 6.34791 9.98439 6.34791 10.8V16.1438H2.97291C2.66354 16.1438 2.43854 15.8906 2.43854 15.6094V8.35314H16.9229V15.5813C16.8948 15.8906 16.6698 16.1438 16.3604 16.1438Z" fill="#00050A"/>
<path d="M8.06353 6.01879H11.2417C11.5792 6.01879 11.8885 5.73754 11.8885 5.37191C11.8885 5.00629 11.6073 4.72504 11.2417 4.72504H8.06353C7.72603 4.72504 7.41666 5.00629 7.41666 5.37191C7.41666 5.73754 7.72603 6.01879 8.06353 6.01879Z" fill="#00050A"/>
</g>
<defs>
<clipPath id="clip0_44_9743">
<rect width="18" height="18" fill="white" transform="translate(0.666656)"/>
</clipPath>
</defs>
</svg>
